<mxfile host="app.diagrams.net" modified="2023-10-01T01:18:04.300Z" agent="Mozilla/5.0 (Windows NT 10.0; Win64; x64) AppleWebKit/537.36 (KHTML, like Gecko) Chrome/117.0.0.0 Safari/537.36" etag="z2kKOjAqykMdYHlEGPVO" version="22.0.0" type="github">
  <diagram name="Page-1" id="yFeZhV-cIWEvNjws4nHp">
    <mxGraphModel dx="819" dy="497" grid="1" gridSize="10" guides="1" tooltips="1" connect="1" arrows="1" fold="1" page="1" pageScale="1" pageWidth="850" pageHeight="1100" math="0" shadow="0">
      <root>
        <mxCell id="0" />
        <mxCell id="1" parent="0" />
        <mxCell id="L2q7vdOv_OgdI9npu6Zu-21" value="" style="rounded=0;whiteSpace=wrap;html=1;fillColor=#f5f5f5;fontColor=#333333;strokeColor=none;" vertex="1" parent="1">
          <mxGeometry x="190" y="170" width="360" height="160" as="geometry" />
        </mxCell>
        <mxCell id="L2q7vdOv_OgdI9npu6Zu-1" value="事件分发" style="rounded=0;whiteSpace=wrap;html=1;" vertex="1" parent="1">
          <mxGeometry x="200" y="240" width="90" height="30" as="geometry" />
        </mxCell>
        <mxCell id="L2q7vdOv_OgdI9npu6Zu-2" value="Packet库" style="rounded=0;whiteSpace=wrap;html=1;" vertex="1" parent="1">
          <mxGeometry x="310" y="240" width="90" height="30" as="geometry" />
        </mxCell>
        <mxCell id="L2q7vdOv_OgdI9npu6Zu-3" value="其他协议" style="rounded=0;whiteSpace=wrap;html=1;" vertex="1" parent="1">
          <mxGeometry x="420" y="240" width="90" height="30" as="geometry" />
        </mxCell>
        <mxCell id="L2q7vdOv_OgdI9npu6Zu-4" value="其他应用" style="rounded=0;whiteSpace=wrap;html=1;" vertex="1" parent="1">
          <mxGeometry x="420" y="180" width="90" height="30" as="geometry" />
        </mxCell>
        <mxCell id="L2q7vdOv_OgdI9npu6Zu-5" value="OpenFlow协议" style="rounded=0;whiteSpace=wrap;html=1;" vertex="1" parent="1">
          <mxGeometry x="200" y="290" width="90" height="30" as="geometry" />
        </mxCell>
        <mxCell id="L2q7vdOv_OgdI9npu6Zu-8" value="OVSDB协议" style="rounded=0;whiteSpace=wrap;html=1;" vertex="1" parent="1">
          <mxGeometry x="310" y="290" width="90" height="30" as="geometry" />
        </mxCell>
        <mxCell id="L2q7vdOv_OgdI9npu6Zu-9" value="VRRP协议" style="rounded=0;whiteSpace=wrap;html=1;" vertex="1" parent="1">
          <mxGeometry x="420" y="290" width="90" height="30" as="geometry" />
        </mxCell>
        <mxCell id="L2q7vdOv_OgdI9npu6Zu-10" value="防火墙" style="rounded=0;whiteSpace=wrap;html=1;" vertex="1" parent="1">
          <mxGeometry x="310" y="180" width="90" height="30" as="geometry" />
        </mxCell>
        <mxCell id="L2q7vdOv_OgdI9npu6Zu-11" value="拓扑发现" style="rounded=0;whiteSpace=wrap;html=1;" vertex="1" parent="1">
          <mxGeometry x="200" y="180" width="90" height="30" as="geometry" />
        </mxCell>
        <mxCell id="L2q7vdOv_OgdI9npu6Zu-12" value="管理员&lt;br&gt;SDN应用" style="rounded=0;whiteSpace=wrap;html=1;" vertex="1" parent="1">
          <mxGeometry x="200" y="120" width="90" height="30" as="geometry" />
        </mxCell>
        <mxCell id="L2q7vdOv_OgdI9npu6Zu-13" value="OpenStack&lt;br&gt;SDN应用" style="rounded=0;whiteSpace=wrap;html=1;" vertex="1" parent="1">
          <mxGeometry x="310" y="120" width="90" height="30" as="geometry" />
        </mxCell>
        <mxCell id="L2q7vdOv_OgdI9npu6Zu-14" value="用户&lt;br&gt;SDN应用" style="rounded=0;whiteSpace=wrap;html=1;" vertex="1" parent="1">
          <mxGeometry x="420" y="120" width="90" height="30" as="geometry" />
        </mxCell>
        <mxCell id="L2q7vdOv_OgdI9npu6Zu-15" value="OpenFlow&lt;br&gt;Switch" style="rounded=0;whiteSpace=wrap;html=1;" vertex="1" parent="1">
          <mxGeometry x="200" y="350" width="90" height="30" as="geometry" />
        </mxCell>
        <mxCell id="L2q7vdOv_OgdI9npu6Zu-16" value="OpenFlow&lt;br&gt;Switch" style="rounded=0;whiteSpace=wrap;html=1;" vertex="1" parent="1">
          <mxGeometry x="310" y="350" width="90" height="30" as="geometry" />
        </mxCell>
        <mxCell id="L2q7vdOv_OgdI9npu6Zu-17" value="OpenFlow&lt;br&gt;Switch" style="rounded=0;whiteSpace=wrap;html=1;" vertex="1" parent="1">
          <mxGeometry x="420" y="350" width="90" height="30" as="geometry" />
        </mxCell>
        <mxCell id="L2q7vdOv_OgdI9npu6Zu-18" value="" style="endArrow=none;dashed=1;html=1;rounded=0;" edge="1" parent="1">
          <mxGeometry width="50" height="50" relative="1" as="geometry">
            <mxPoint x="180" y="160" as="sourcePoint" />
            <mxPoint x="560" y="160" as="targetPoint" />
          </mxGeometry>
        </mxCell>
        <mxCell id="L2q7vdOv_OgdI9npu6Zu-19" value="" style="endArrow=none;dashed=1;html=1;rounded=0;" edge="1" parent="1">
          <mxGeometry width="50" height="50" relative="1" as="geometry">
            <mxPoint x="180" y="340" as="sourcePoint" />
            <mxPoint x="560" y="340" as="targetPoint" />
          </mxGeometry>
        </mxCell>
        <mxCell id="L2q7vdOv_OgdI9npu6Zu-20" value="RYU&lt;br&gt;SDN&lt;br&gt;框架" style="text;html=1;align=center;verticalAlign=middle;resizable=0;points=[];autosize=1;strokeColor=none;fillColor=none;" vertex="1" parent="1">
          <mxGeometry x="505" y="250" width="50" height="60" as="geometry" />
        </mxCell>
        <mxCell id="L2q7vdOv_OgdI9npu6Zu-22" value="" style="endArrow=none;dashed=1;html=1;rounded=0;" edge="1" parent="1">
          <mxGeometry width="50" height="50" relative="1" as="geometry">
            <mxPoint x="180" y="230" as="sourcePoint" />
            <mxPoint x="560" y="230" as="targetPoint" />
          </mxGeometry>
        </mxCell>
        <mxCell id="L2q7vdOv_OgdI9npu6Zu-23" value="应用平面" style="text;html=1;align=center;verticalAlign=middle;resizable=0;points=[];autosize=1;strokeColor=none;fillColor=none;" vertex="1" parent="1">
          <mxGeometry x="570" y="180" width="70" height="30" as="geometry" />
        </mxCell>
        <mxCell id="L2q7vdOv_OgdI9npu6Zu-24" value="控制平面" style="text;html=1;align=center;verticalAlign=middle;resizable=0;points=[];autosize=1;strokeColor=none;fillColor=none;" vertex="1" parent="1">
          <mxGeometry x="570" y="265" width="70" height="30" as="geometry" />
        </mxCell>
        <mxCell id="L2q7vdOv_OgdI9npu6Zu-25" value="数据平面" style="text;html=1;align=center;verticalAlign=middle;resizable=0;points=[];autosize=1;strokeColor=none;fillColor=none;" vertex="1" parent="1">
          <mxGeometry x="570" y="350" width="70" height="30" as="geometry" />
        </mxCell>
        <mxCell id="L2q7vdOv_OgdI9npu6Zu-26" value="" style="endArrow=classic;startArrow=classic;html=1;rounded=0;" edge="1" parent="1">
          <mxGeometry width="50" height="50" relative="1" as="geometry">
            <mxPoint x="570" y="230" as="sourcePoint" />
            <mxPoint x="570" y="140" as="targetPoint" />
          </mxGeometry>
        </mxCell>
        <mxCell id="L2q7vdOv_OgdI9npu6Zu-27" value="" style="endArrow=classic;startArrow=classic;html=1;rounded=0;" edge="1" parent="1">
          <mxGeometry width="50" height="50" relative="1" as="geometry">
            <mxPoint x="570" y="340" as="sourcePoint" />
            <mxPoint x="570" y="230" as="targetPoint" />
          </mxGeometry>
        </mxCell>
        <mxCell id="L2q7vdOv_OgdI9npu6Zu-28" value="RESTAPI&lt;br&gt;、RPC等&lt;br&gt;北向接口" style="text;html=1;align=left;verticalAlign=middle;resizable=0;points=[];autosize=1;strokeColor=none;fillColor=none;" vertex="1" parent="1">
          <mxGeometry x="120" y="130" width="70" height="60" as="geometry" />
        </mxCell>
        <mxCell id="L2q7vdOv_OgdI9npu6Zu-29" value="&lt;div style=&quot;text-align: left;&quot;&gt;&lt;span style=&quot;background-color: initial;&quot;&gt;OpenFlow、&lt;/span&gt;&lt;/div&gt;&lt;div style=&quot;text-align: left;&quot;&gt;&lt;span style=&quot;background-color: initial;&quot;&gt;NETCOM等&lt;/span&gt;&lt;/div&gt;&lt;div style=&quot;text-align: left;&quot;&gt;&lt;span style=&quot;background-color: initial;&quot;&gt;南向协议&lt;/span&gt;&lt;/div&gt;" style="text;html=1;align=center;verticalAlign=middle;resizable=0;points=[];autosize=1;strokeColor=none;fillColor=none;" vertex="1" parent="1">
          <mxGeometry x="100" y="310" width="90" height="60" as="geometry" />
        </mxCell>
      </root>
    </mxGraphModel>
  </diagram>
</mxfile>
